<?xml version="1.0" standalone="no"?>
<!DOCTYPE svg PUBLIC "-//W3C//DTD SVG 20010904//EN"
 "http://www.w3.org/TR/2001/REC-SVG-20010904/DTD/svg10.dtd">
<svg version="1.0" xmlns="http://www.w3.org/2000/svg"
 width="460.000000pt" height="460.000000pt" viewBox="0 0 460.000000 460.000000"
 preserveAspectRatio="xMidYMid meet">

<g transform="translate(0.000000,460.000000) scale(0.100000,-0.100000)"
fill="#000000" stroke="none">
<path d="M1921 3796 c-17 -20 -10 -29 19 -24 19 3 19 5 8 21 -13 17 -15 17
-27 3z"/>
<path d="M1820 3721 c0 -5 9 -7 20 -4 11 3 20 7 20 9 0 2 -9 4 -20 4 -11 0
-20 -4 -20 -9z"/>
<path d="M1656 3705 c-8 -8 -17 -24 -21 -34 -3 -11 -12 -22 -20 -25 -8 -3 -15
-12 -15 -21 0 -9 -18 -34 -40 -55 -36 -35 -62 -46 -93 -41 -5 1 -5 -4 -1 -10
5 -9 2 -10 -9 -6 -9 3 -16 3 -16 -1 3 -18 -2 -32 -12 -32 -5 0 -8 4 -5 9 3 5
-3 11 -14 14 -11 3 -18 2 -15 -3 7 -11 -32 -19 -82 -17 -23 1 -39 -2 -35 -7 3
-5 -1 -7 -10 -4 -20 8 -38 -4 -43 -31 -2 -12 0 -19 6 -16 5 4 9 -1 9 -10 0 -9
-4 -13 -10 -10 -5 3 -10 2 -10 -4 0 -5 6 -12 13 -14 7 -3 5 -6 -5 -6 -14 -1
-18 -10 -18 -43 -1 -24 -3 -91 -5 -150 -4 -100 -3 -107 15 -113 28 -9 41 -37
24 -52 -7 -7 -15 -9 -18 -4 -7 11 -46 2 -46 -10 0 -5 -5 -9 -11 -9 -20 0 -39
-33 -27 -47 15 -19 28 -16 28 7 0 19 1 19 25 -2 13 -11 22 -25 19 -30 -3 -4 2
-8 11 -8 8 0 18 7 22 15 5 14 7 14 23 0 17 -15 73 -18 64 -3 -3 4 1 8 8 8 10
0 9 3 -2 9 -8 6 -19 7 -25 4 -5 -3 -4 0 3 8 16 17 16 30 -1 24 -6 -3 -18 4
-24 14 -11 17 -9 21 8 26 11 4 23 4 26 1 4 -3 12 -1 19 5 9 8 11 5 7 -10 -3
-12 -1 -21 5 -21 6 0 14 -9 17 -21 6 -19 49 -45 68 -40 5 1 6 -3 2 -8 -8 -14
80 -55 96 -45 7 4 10 3 7 -2 -3 -5 0 -15 8 -21 8 -9 15 -9 19 -2 5 7 11 6 21
-2 8 -6 14 -8 14 -4 0 4 7 2 15 -5 13 -11 15 -10 9 6 -5 18 -5 18 10 0 9 -11
16 -24 16 -29 0 -5 7 -7 15 -3 8 3 15 1 15 -5 0 -6 5 -7 10 -4 6 3 10 -1 10
-10 0 -12 5 -15 17 -11 9 4 20 1 24 -6 6 -9 12 -8 25 3 11 9 15 9 10 2 -5 -9
0 -13 13 -13 12 0 21 -4 21 -10 0 -5 5 -10 11 -10 5 0 7 5 3 12 -4 7 -3 8 5 4
18 -11 3 -26 -27 -26 -21 0 -24 -2 -12 -10 12 -8 10 -10 -8 -10 -13 0 -20 4
-17 10 3 6 -5 11 -19 11 -14 1 -29 2 -33 3 -5 2 -30 6 -58 11 -27 4 -59 12
-70 18 -11 5 -33 13 -50 17 -16 4 -39 11 -49 16 -14 5 -17 4 -12 -4 4 -7 3
-12 -3 -12 -5 0 -11 4 -13 9 -1 5 -21 10 -43 12 -22 1 -55 10 -72 20 -30 17
-33 17 -33 2 0 -14 -2 -14 -20 2 -11 10 -17 22 -14 27 3 4 2 8 -3 7 -4 -1 -17
1 -28 5 -104 38 -211 85 -381 168 -143 70 -211 98 -237 98 -35 0 -49 -15 -30
-33 3 -4 7 -22 9 -39 1 -18 0 -27 -3 -20 -2 6 -14 12 -26 12 -20 0 -21 0 -1
-16 10 -8 13 -12 5 -8 -9 5 -12 3 -7 -5 4 -6 11 -9 15 -7 4 3 13 1 21 -5 13
-7 12 -9 -2 -9 -10 0 -18 -3 -18 -7 1 -14 39 -78 40 -68 0 6 9 -4 18 -22 26
-48 174 -198 227 -230 11 -7 45 -25 75 -40 30 -15 61 -33 68 -40 7 -7 24 -16
37 -19 21 -5 23 -10 18 -36 -4 -20 -1 -33 8 -39 9 -6 10 -12 4 -16 -6 -5 -22
-24 -35 -43 -20 -29 -21 -32 -5 -20 11 8 27 24 36 34 15 18 16 16 16 -28 0
-30 5 -51 14 -56 11 -7 8 -13 -11 -30 -14 -12 -24 -28 -22 -36 3 -16 -35 -53
-55 -54 -7 0 -18 -9 -25 -20 -14 -21 -34 -29 -22 -7 4 6 -1 5 -12 -4 -10 -9
-25 -14 -31 -12 -7 3 -13 0 -13 -6 0 -6 6 -11 13 -11 6 0 -16 -15 -51 -32 -43
-21 -59 -34 -50 -39 10 -7 10 -9 -2 -9 -10 -1 -7 -8 11 -23 25 -22 50 -58 61
-88 5 -12 2 -16 -10 -12 -12 3 -27 -12 -50 -50 -32 -54 -71 -85 -90 -73 -6 3
-12 2 -14 -2 -4 -12 -150 -82 -169 -82 -8 0 -31 -13 -49 -30 -18 -16 -38 -30
-43 -30 -17 0 -46 -41 -40 -56 4 -10 0 -12 -11 -8 -10 4 -16 1 -17 -7 0 -8 -2
-30 -4 -50 -3 -34 -1 -35 26 -31 16 2 29 0 29 -6 0 -6 -9 -9 -21 -7 -15 3 -18
1 -11 -8 8 -9 3 -12 -15 -14 -19 -1 -22 1 -12 8 9 5 10 9 2 9 -6 0 -13 10 -15
22 -2 18 -10 23 -45 25 -25 2 -43 -2 -43 -8 0 -13 -40 -1 -55 15 -24 28 -43
37 -51 25 -4 -7 -3 -9 3 -6 6 4 13 0 17 -8 3 -8 0 -14 -7 -12 -7 1 -11 -6 -9
-15 1 -9 -3 -20 -9 -24 -8 -5 -9 -3 -4 6 5 8 4 11 -2 7 -11 -7 -10 -38 2 -72
4 -11 3 -16 -2 -10 -13 16 -33 16 -33 -1 0 -8 4 -13 9 -10 5 3 15 -2 22 -11
12 -15 11 -16 -8 -11 -19 5 -23 2 -23 -18 0 -28 32 -48 63 -39 20 5 19 4 -3
-9 -14 -8 -26 -11 -28 -7 -1 5 -18 7 -37 5 -19 -1 -35 2 -35 7 0 5 6 9 13 9 8
0 14 7 14 15 0 24 -18 12 -37 -23 -10 -17 -19 -30 -21 -27 -2 2 -9 -7 -15 -20
-10 -20 -9 -23 7 -20 17 3 18 1 7 -18 -7 -12 -11 -25 -10 -29 1 -5 -8 -8 -20
-8 -16 0 -19 -3 -11 -11 8 -8 8 -20 2 -36 -5 -14 -7 -28 -4 -33 3 -5 0 -12 -6
-15 -5 -4 -8 -13 -5 -21 3 -8 0 -17 -8 -20 -7 -3 -14 -10 -16 -17 -1 -7 -4
-267 -7 -580 l-4 -567 1405 0 c1114 0 1405 3 1409 13 4 9 6 8 6 -2 1 -10 4
-11 15 -2 10 8 16 9 21 1 4 -6 57 -10 139 -10 107 0 136 3 146 15 7 8 17 15
22 15 6 0 5 -7 -2 -15 -10 -12 -10 -15 3 -15 9 0 24 11 35 25 11 14 25 25 32
25 6 0 8 5 4 12 -4 6 -3 8 4 4 6 -3 13 -2 17 3 3 6 20 20 38 32 27 18 26 16
-8 -16 -22 -20 -50 -44 -62 -52 -37 -25 -27 -32 47 -32 39 0 68 4 65 9 -3 5
-1 11 5 15 5 3 10 0 10 -8 0 -8 11 -14 29 -14 21 0 27 4 24 16 -5 21 24 91 39
91 6 0 8 3 5 6 -4 4 -13 1 -21 -5 -8 -7 -23 -11 -32 -9 -16 3 -16 5 2 22 19
19 19 20 -5 13 -18 -4 -21 -3 -12 6 9 9 16 9 31 -1 25 -15 27 -15 27 2 0 25
-47 29 -71 7 -36 -34 -40 -24 -5 11 31 31 32 33 11 36 -16 3 -22 10 -22 30 0
20 -8 31 -32 42 -18 8 -34 22 -36 30 -3 12 -2 12 6 1 8 -11 10 -11 15 0 4 10
8 7 13 -9 10 -34 29 -21 29 21 1 20 -3 33 -9 30 -5 -4 -7 1 -3 10 4 11 1 17
-7 17 -15 0 -43 76 -32 87 4 4 11 1 16 -7 8 -13 10 -12 10 3 0 11 5 16 13 12
6 -4 2 2 -10 13 l-22 19 25 12 c14 6 22 16 19 21 -4 6 -11 8 -16 5 -5 -4 -9 0
-9 8 0 8 -6 17 -14 20 -14 6 -20 25 -31 110 -3 26 -11 47 -16 47 -6 0 -7 -5
-3 -12 4 -7 3 -8 -4 -4 -6 4 -9 13 -5 21 3 8 1 15 -5 15 -6 0 -9 -11 -8 -25 2
-14 -1 -22 -7 -18 -5 3 -18 -5 -27 -18 l-18 -23 2 37 c1 25 -3 37 -12 37 -7 0
-11 -4 -8 -8 3 -5 -1 -9 -9 -9 -13 0 -13 3 0 17 8 9 13 19 10 21 -4 4 14 8 52
11 7 1 10 5 7 9 -2 4 2 10 8 12 10 4 10 6 0 6 -8 1 -10 6 -5 14 4 6 8 14 9 17
5 26 20 41 38 38 11 -1 27 2 35 6 10 6 12 5 7 -2 -4 -7 -2 -12 3 -12 17 0 13
30 -4 36 -8 4 -12 11 -8 17 10 16 11 137 1 137 -4 0 -8 9 -8 20 0 11 -4 20
-10 20 -5 0 -6 8 -3 17 6 15 4 16 -8 7 -11 -9 -17 -9 -27 2 -9 10 -9 14 -1 14
6 0 9 8 6 19 -3 15 0 17 17 13 20 -5 20 -5 4 12 -12 12 -16 26 -11 49 7 40 7
39 1 57 -3 8 -11 33 -18 55 -15 46 -24 55 -57 49 -12 -2 -23 0 -23 6 0 5 9 10
21 10 11 0 17 4 14 10 -4 6 -16 8 -27 4 -16 -5 -20 -3 -15 9 3 9 -4 19 -18 27
-19 10 -22 17 -15 36 8 19 6 22 -7 17 -12 -5 -14 -3 -8 7 6 10 4 12 -10 7 -9
-4 -24 -2 -32 5 -11 9 -13 8 -11 -2 2 -8 -6 -16 -16 -18 -14 -3 -17 0 -13 11
6 17 -19 30 -59 32 -21 1 -21 1 -3 -32 14 -25 15 -31 4 -26 -14 5 -19 16 -17
35 1 3 -5 12 -13 18 -17 14 -21 35 -5 25 6 -3 10 1 10 9 0 17 -73 59 -84 48
-4 -3 -4 2 0 13 7 17 6 18 -8 7 -14 -11 -18 -11 -25 1 -9 15 -53 42 -53 32 0
-4 16 -26 35 -49 37 -46 45 -72 19 -62 -9 3 -20 6 -25 6 -6 0 -7 5 -4 11 4 6
0 9 -11 7 -19 -3 -21 2 -9 37 6 16 5 17 -4 5 -12 -17 -12 -17 -15 25 -1 17 4
40 11 52 13 19 12 23 -6 32 -21 12 -38 0 -26 -19 11 -18 -29 2 -48 24 -10 12
-16 15 -12 9 4 -8 0 -13 -11 -13 -12 0 -15 -6 -11 -22 5 -21 5 -21 -7 -5 -7 9
-18 17 -25 17 -6 0 -11 5 -11 10 0 6 3 9 8 9 21 -4 23 3 8 26 -13 19 -13 23
-2 19 8 -3 17 -1 21 5 6 10 -8 16 -30 11 -5 -1 -7 2 -3 5 4 4 2 17 -3 28 -9
16 -5 15 25 -8 20 -15 36 -23 36 -17 0 17 -68 65 -80 57 -7 -4 -14 2 -17 14
-3 12 -11 21 -18 21 -7 0 -19 8 -26 18 -11 14 -11 15 1 5 8 -7 21 -13 30 -12
10 0 11 2 2 6 -6 2 -9 10 -6 15 4 6 3 9 -2 6 -5 -3 -18 4 -28 15 -16 17 -17
19 -3 14 20 -8 22 9 4 38 -12 20 -47 30 -47 14 0 -5 -4 -9 -9 -9 -5 0 -8 13
-6 29 3 27 1 29 -33 35 -20 4 -46 7 -56 8 -24 3 -71 47 -72 69 -1 12 5 15 19
11 20 -5 20 -5 -2 26 -12 18 -26 30 -31 27 -5 -3 -12 -1 -15 5 -4 6 -1 9 7 8
7 -2 12 3 10 10 -1 9 6 7 25 -5 28 -17 28 -17 12 2 -8 11 -21 34 -27 50 -11
27 -11 28 3 11 23 -31 27 -14 5 27 -23 42 -10 48 25 12 16 -16 25 -19 25 -10
0 8 -10 21 -22 30 -19 13 -21 18 -11 34 7 10 9 22 5 26 -8 8 -12 65 -4 65 3 0
18 -15 34 -32 l28 -33 -25 39 c-42 65 -36 77 53 109 111 40 131 51 178 93 12
11 47 33 76 48 61 33 100 65 92 77 -3 5 1 9 9 9 26 0 123 132 111 152 -3 4
-16 8 -30 8 -14 0 -22 -4 -19 -10 6 -9 -8 -15 -29 -11 -5 1 -6 -5 -3 -14 4 -8
2 -15 -2 -15 -5 0 -11 5 -13 11 -3 9 -9 9 -26 0 -54 -28 -63 -31 -79 -31 -14
0 -15 -2 -5 -9 10 -6 8 -10 -9 -14 -13 -4 -25 -4 -28 -2 -2 3 1 5 8 5 7 0 10
4 6 10 -3 5 -12 7 -20 4 -8 -4 -13 -9 -10 -13 2 -4 -3 -8 -11 -8 -9 0 -13 6
-9 15 4 12 2 12 -8 4 -8 -7 -17 -9 -20 -5 -4 3 -13 1 -20 -5 -8 -7 -34 -14
-58 -17 -24 -3 -48 -10 -53 -15 -6 -6 -15 -10 -20 -10 -6 0 -5 4 1 8 7 5 -20
9 -61 10 -41 2 -85 5 -98 7 -22 4 -22 4 -4 -10 11 -8 25 -15 30 -15 6 0 3 -5
-7 -11 -9 -5 -22 -7 -27 -4 -6 3 -10 2 -10 -3 0 -6 -10 -8 -22 -5 -19 4 -21 3
-8 -7 12 -10 12 -11 -5 -4 -11 4 -48 10 -82 12 -52 3 -63 7 -63 21 0 14 -6 17
-24 14 -13 -3 -27 0 -30 6 -4 5 -13 8 -21 4 -9 -3 -15 1 -15 8 0 9 -3 10 -8 3
-4 -6 -17 -13 -30 -16 -18 -5 -26 0 -37 23 -9 16 -12 29 -8 29 5 0 1 5 -7 10
-8 5 -24 7 -35 5 -11 -3 -15 -2 -8 1 8 4 7 11 -4 24 -22 25 -27 56 -7 39 7 -6
11 -15 8 -20 -3 -5 2 -9 10 -9 8 0 17 4 20 9 3 5 15 7 26 4 11 -3 17 -9 14
-14 -6 -10 9 -12 19 -2 4 3 -1 12 -11 20 -16 12 -16 14 2 28 25 19 46 19 46 0
0 -8 5 -15 11 -15 5 0 7 5 3 12 -4 7 -3 8 5 4 8 -5 9 -12 2 -20 -8 -9 -2 -16
24 -26 22 -9 31 -16 23 -21 -9 -6 -9 -11 1 -23 21 -25 51 0 44 36 -5 24 -3 27
12 21 11 -4 16 -2 12 4 -3 5 0 10 8 10 8 0 17 -8 20 -18 3 -10 11 -16 18 -13
7 2 28 -6 47 -18 47 -29 80 -30 80 -3 0 15 -2 17 -9 6 -14 -22 -24 24 -11 49
12 23 6 40 -15 40 -12 0 -14 25 -13 143 1 78 4 147 8 152 3 6 5 26 5 45 0 31
-4 36 -43 50 -23 9 -39 19 -36 23 4 4 -4 7 -17 7 -14 0 -35 9 -46 19 -12 11
-24 17 -29 13 -4 -4 -4 -2 -1 4 3 6 -7 21 -23 32 l-29 22 2 -34 c1 -19 -2 -34
-8 -33 -5 1 -9 6 -7 11 2 5 -3 13 -10 17 -10 6 -10 13 -2 27 9 14 8 22 -2 37
-8 10 -14 15 -14 10 0 -4 -9 0 -20 10 -11 10 -20 23 -20 28 0 6 7 2 16 -9 14
-18 15 -18 4 4 -6 12 -15 22 -21 22 -6 0 -8 10 -4 23 4 15 3 18 -3 8 -11 -15
-27 2 -17 19 3 5 0 7 -9 4 -10 -4 -17 2 -22 20 -7 29 -24 35 -25 9 0 -11 -3
-13 -6 -5 -5 14 -53 17 -53 3 0 -15 -71 -6 -107 12 -28 15 -33 15 -47 2z m95
-42 c13 -15 12 -15 -8 -4 -24 12 -29 21 -14 21 5 0 15 -7 22 -17z m69 -103 c0
-5 -4 -10 -10 -10 -5 0 -10 5 -10 10 0 6 5 10 10 10 6 0 10 -4 10 -10z m-560
-94 c0 -2 -8 -10 -17 -17 -16 -13 -17 -12 -4 4 13 16 21 21 21 13z m-23 -143
c1 -33 -1 -43 -7 -33 -15 23 -11 80 5 80 0 0 1 -21 2 -47z m706 -98 c-7 -21
-13 -19 -13 6 0 11 4 18 10 14 5 -3 7 -12 3 -20z m-683 -35 c0 -5 -5 -10 -11
-10 -5 0 -7 5 -4 10 3 6 8 10 11 10 2 0 4 -4 4 -10z m-19 -38 c-7 -2 -18 1
-23 6 -8 8 -4 9 13 5 13 -4 18 -8 10 -11z m46 4 c-3 -7 0 -20 6 -27 10 -11 9
-11 -5 0 -15 11 -15 41 -1 41 3 0 3 -6 0 -14z m643 -76 c-21 -7 -12 -15 13
-11 4 1 3 -7 -3 -18 -14 -28 -13 -31 13 -32 12 0 16 -3 9 -6 -23 -9 -62 7 -62
25 0 13 2 14 9 3 6 -9 11 -10 15 -2 4 6 0 14 -8 17 -27 10 -19 34 12 33 l27
-1 -25 -8z m208 -28 c6 -18 -15 -14 -22 4 -4 10 -1 14 6 12 6 -2 14 -10 16
-16z m-1503 -60 c-3 -3 -11 0 -18 7 -9 10 -8 11 6 5 10 -3 15 -9 12 -12z
m1255 7 c0 -6 7 -9 15 -5 17 6 19 -2 6 -22 -11 -19 -15 -19 -34 -4 -9 8 -13
20 -10 28 6 17 23 19 23 3z m-405 -69 c3 -5 1 -10 -4 -10 -6 0 -11 5 -11 10 0
6 2 10 4 10 3 0 8 -4 11 -10z m-761 -16 c3 -8 2 -12 -4 -9 -6 3 -10 10 -10 16
0 14 7 11 14 -7z m2156 -3 c0 -12 -39 -25 -47 -17 -4 3 1 6 11 6 9 0 14 5 11
10 -3 6 1 10 9 10 9 0 16 -4 16 -9z m-1280 -21 c0 -5 -2 -10 -4 -10 -3 0 -8 5
-11 10 -3 6 -1 10 4 10 6 0 11 -4 11 -10z m237 -6 c-3 -3 -12 -4 -19 -1 -8 3
-5 6 6 6 11 1 17 -2 13 -5z m927 -5 c-2 -4 2 -10 8 -13 18 -7 -19 -36 -46 -36
-19 0 -19 0 -1 14 10 7 16 20 13 27 -4 10 1 15 12 15 10 0 17 -3 14 -7z m-889
-9 c3 -5 -1 -10 -10 -10 -9 0 -13 5 -10 10 3 6 8 10 10 10 2 0 7 -4 10 -10z
m980 0 c-3 -5 -12 -10 -18 -10 -7 0 -6 4 3 10 19 12 23 12 15 0z m-1718 -262
c-3 -8 -6 -5 -6 6 -1 11 2 17 5 13 3 -3 4 -12 1 -19z m1193 -203 c0 -5 -5 -3
-10 5 -5 8 -10 20 -10 25 0 6 5 3 10 -5 5 -8 10 -19 10 -25z m-1169 -38 c-10
-9 -11 -8 -5 6 3 10 9 15 12 12 3 -3 0 -11 -7 -18z m89 -122 c-14 -8 -29 -14
-35 -14 -5 0 1 6 15 14 14 8 30 14 35 14 6 0 -1 -6 -15 -14z m-94 -90 c-11 -8
-27 -15 -35 -15 -10 1 -7 6 9 15 33 19 50 18 26 0z m1289 -135 c-3 -5 -1 -10
6 -10 7 0 10 -3 6 -6 -3 -4 -14 -3 -24 0 -15 6 -15 8 -3 16 19 12 23 12 15 0z
m35 -58 c2 -2 -2 -7 -10 -12 -9 -6 -18 -3 -27 8 -24 33 -10 34 37 4z m-1550
-1 c0 -6 -5 -13 -11 -17 -6 -3 -9 -19 -5 -35 6 -31 -4 -42 -28 -33 -14 5 -14
8 -1 21 8 8 15 25 15 37 0 12 3 26 7 29 9 10 23 8 23 -2z m1577 -38 c-4 -3 1
-12 11 -19 16 -13 16 -13 -1 -14 -11 0 -16 -5 -12 -12 4 -7 -3 -2 -14 12 -26
32 -26 40 1 40 12 0 18 -3 15 -7z m68 -84 c-4 -5 -15 -9 -26 -9 -11 0 -18 4
-14 9 3 5 1 12 -5 16 -24 15 -7 22 20 8 17 -8 28 -19 25 -24z m-1687 9 c-6
-16 -21 -14 -24 4 -1 11 3 15 12 11 8 -3 13 -10 12 -15z m1552 -169 c0 -14
-27 -10 -33 5 -4 10 0 12 14 9 10 -3 19 -9 19 -14z m170 9 c0 -6 -3 -8 -7 -5
-3 4 -11 2 -18 -3 -8 -7 -12 -6 -12 3 0 7 9 14 19 14 10 1 18 -3 18 -9z m20
-18 c0 -5 -8 -10 -17 -10 -15 0 -16 2 -3 10 19 12 20 12 20 0z m65 -10 c-3 -5
-12 -10 -18 -10 -7 0 -6 4 3 10 19 12 23 12 15 0z m-1945 -20 c0 -5 -4 -10 -9
-10 -6 0 -13 5 -16 10 -3 6 1 10 9 10 9 0 16 -4 16 -10z m1915 -12 c3 -13 9
-18 11 -11 6 13 34 6 34 -8 0 -4 -7 -6 -14 -3 -13 5 -13 2 -3 -19 9 -19 19
-24 42 -23 23 1 29 -3 27 -16 -2 -11 3 -18 12 -18 8 0 17 -4 21 -10 3 -5 -14
-7 -46 -3 -38 4 -50 3 -45 -5 5 -8 2 -10 -9 -6 -14 6 -14 8 2 20 15 11 15 13
2 8 -20 -6 -32 20 -23 49 4 13 2 17 -5 13 -6 -4 -11 -15 -12 -24 0 -11 -2 -12
-6 -4 -3 7 1 20 9 29 11 14 11 16 -4 11 -10 -4 -19 -1 -22 8 -4 10 -2 12 6 8
8 -5 9 -2 5 9 -3 10 -3 17 2 17 5 0 12 -10 16 -22z m-2424 -21 c-10 -9 -11 -8
-5 6 3 10 9 15 12 12 3 -3 0 -11 -7 -18z m209 15 c0 -5 -7 -9 -15 -9 -8 0 -12
4 -9 9 3 4 9 8 15 8 5 0 9 -4 9 -8z m363 -3 c17 0 14 -3 -11 -13 -18 -6 -31
-14 -27 -17 3 -4 -3 -12 -12 -20 -15 -11 -16 -11 -6 1 9 10 9 17 2 26 -14 17
-1 37 18 30 8 -3 24 -6 36 -7z m1945 -1 c19 -19 14 -26 -12 -21 -16 3 -23 10
-19 19 6 17 15 18 31 2z m-2018 -8 c0 -5 -8 -10 -17 -10 -15 0 -16 2 -3 10 19
12 20 12 20 0z m2148 -58 c-10 -2 -18 -11 -18 -20 0 -15 2 -15 10 -2 11 17 13
10 4 -14 -3 -9 -13 -16 -21 -16 -10 0 -12 6 -7 23 4 12 8 30 8 39 0 14 4 14
21 5 18 -10 18 -12 3 -15z m-663 8 c3 -5 1 -10 -4 -10 -6 0 -11 5 -11 10 0 6
2 10 4 10 3 0 8 -4 11 -10z m625 -30 c0 -5 -7 -7 -15 -4 -8 4 -15 8 -15 10 0
2 7 4 15 4 8 0 15 -4 15 -10z m-2192 -34 c-10 -7 -14 -17 -10 -21 4 -4 -3 -5
-16 -2 -12 3 -20 1 -16 -4 8 -13 -10 -11 -24 3 -12 12 -21 0 -26 -36 -2 -14
-72 -76 -85 -76 -3 0 2 7 12 14 9 7 17 18 17 24 0 5 7 13 16 16 8 3 12 10 9
16 -3 5 -1 10 4 10 6 0 11 9 11 19 0 21 20 32 63 36 15 2 31 6 34 9 4 3 11 6
17 6 6 0 3 -7 -6 -14z m2265 -5 c-9 -11 -21 -17 -26 -14 -6 3 -7 1 -3 -5 4 -6
13 -9 21 -6 10 4 12 0 8 -17 -5 -17 -3 -20 7 -14 10 6 11 4 4 -6 -12 -20 -14
-38 -3 -45 5 -3 9 -10 9 -16 0 -7 -6 -6 -15 2 -9 7 -13 23 -11 36 5 27 3 28
-27 12 -20 -10 -21 -10 -8 6 9 10 11 20 5 24 -17 13 -13 41 6 37 10 -2 21 3
24 11 3 8 10 14 16 14 5 0 2 -9 -7 -19z m-180 -34 c-3 -5 -13 -7 -23 -4 -11 3
-21 -2 -25 -11 -6 -16 -18 -10 -21 13 -1 9 6 15 17 15 10 0 19 5 19 10 0 6 8
5 19 -2 11 -7 17 -16 14 -21z m352 24 c3 -5 -3 -12 -12 -14 -14 -4 -13 -5 4
-6 12 0 24 -10 28 -20 4 -14 12 -18 23 -14 9 3 14 3 10 -2 -4 -4 -2 -15 5 -23
10 -12 9 -16 -1 -20 -10 -3 -10 -7 -1 -18 10 -12 9 -17 -1 -27 -10 -9 -11 -9
-6 0 4 7 -2 18 -14 25 -11 7 -20 19 -20 27 0 8 -3 12 -6 8 -8 -8 15 -77 27
-77 5 0 9 -7 9 -16 0 -8 -4 -12 -10 -9 -5 3 -10 -2 -10 -11 0 -14 -3 -15 -12
-6 -6 6 -13 17 -14 24 -12 55 -32 127 -40 139 -5 8 -9 19 -9 24 -1 21 38 34
50 16z m-555 -17 c0 -14 -3 -14 -15 -4 -8 7 -15 14 -15 16 0 2 7 4 15 4 8 0
15 -7 15 -16z m487 -19 c4 -11 6 -23 5 -26 -12 -49 -10 -60 9 -54 14 5 19 2
19 -10 0 -12 -5 -15 -16 -11 -9 3 -25 6 -35 6 -11 0 -17 5 -14 10 3 6 1 10 -5
10 -6 0 -9 4 -6 9 3 5 -1 12 -9 15 -13 4 -14 2 -5 -14 6 -11 7 -20 3 -20 -4 0
0 -7 10 -15 11 -7 25 -11 32 -9 7 3 15 -2 19 -11 3 -9 2 -13 -4 -10 -6 3 -10
0 -10 -8 0 -10 -7 -13 -20 -10 -21 6 -29 -12 -8 -19 7 -3 6 -7 -5 -11 -11 -4
-17 -1 -17 9 0 8 -4 13 -9 10 -4 -3 -6 9 -4 27 4 36 4 47 0 98 -2 19 -7 41
-11 47 -5 8 5 11 34 9 30 -1 42 -7 47 -22z m-2504 -10 c5 -10 -4 -16 -29 -21
-34 -6 -57 -24 -32 -24 8 -1 5 -7 -7 -16 -11 -8 -19 -17 -17 -19 7 -15 0 -45
-11 -45 -7 0 -21 -13 -30 -30 -34 -57 -85 -61 -88 -6 -1 19 -2 18 -8 -4 -4
-14 -7 -34 -6 -45 1 -17 -4 -20 -32 -19 -19 1 -33 -3 -33 -10 0 -7 -3 -7 -8
-1 -9 13 -46 20 -38 7 3 -5 -5 -7 -18 -5 -13 3 -26 14 -29 24 -7 27 9 33 17 6
6 -20 7 -20 16 -5 7 10 17 15 27 11 11 -4 14 -3 9 6 -4 6 -15 10 -23 9 -9 -2
-18 3 -21 11 -3 8 0 11 7 7 6 -4 11 -1 11 8 0 8 6 18 13 22 6 4 9 3 4 -1 -4
-5 5 -21 20 -37 15 -15 23 -28 19 -28 -4 0 -4 -4 -1 -10 4 -6 11 -5 19 3 8 6
12 15 9 20 -2 4 2 7 9 7 7 1 -3 8 -22 17 -24 10 -30 17 -20 21 8 3 18 11 23
18 4 7 21 12 37 12 16 -1 28 -4 25 -7 -10 -17 44 -8 60 9 10 11 22 17 26 14 5
-3 9 2 9 10 0 9 4 16 9 16 5 0 9 11 9 25 0 31 3 36 31 38 11 1 21 5 21 10 0 4
5 5 10 2 6 -3 10 -1 10 4 0 16 17 13 23 -4z m67 5 c0 -5 -5 -10 -11 -10 -5 0
-7 5 -4 10 3 6 8 10 11 10 2 0 4 -4 4 -10z m-295 -30 c-3 -5 3 -11 14 -11 12
-1 29 -2 39 -2 9 -1 23 -8 30 -17 11 -13 12 -12 10 5 -2 11 -7 23 -13 27 -6 5
-3 8 6 8 9 0 23 -8 30 -17 10 -11 10 -14 2 -9 -7 4 -13 2 -13 -3 0 -6 6 -11
13 -11 19 -1 -25 -30 -45 -30 -12 0 -18 6 -16 17 2 13 -4 18 -26 18 -28 1 -76
-32 -69 -46 1 -4 -4 -10 -13 -13 -12 -5 -15 -2 -10 11 6 17 5 17 -8 1 -18 -25
-29 -23 -14 2 7 11 19 20 26 20 7 0 10 5 7 10 -3 6 1 13 10 16 9 4 14 13 11
20 -4 9 2 14 15 14 11 0 17 -4 14 -10z m2765 -10 c0 -5 -2 -10 -4 -10 -3 0 -8
5 -11 10 -3 6 -1 10 4 10 6 0 11 -4 11 -10z m-253 -16 c-3 -3 -12 -4 -19 -1
-8 3 -5 6 6 6 11 1 17 -2 13 -5z m-2467 -47 c0 -5 -6 -4 -14 2 -9 8 -15 8 -18
2 -2 -6 -9 -7 -17 -2 -7 5 -11 14 -7 20 8 12 56 -6 56 -22z m2354 14 c-8 -8
-34 -10 -38 -2 -3 4 6 7 19 7 14 0 22 -2 19 -5z m-1134 -20 c11 -22 14 -58 3
-48 -3 4 -11 -3 -17 -16 -17 -32 -77 -45 -111 -23 -32 21 -24 38 36 76 52 34
75 37 89 11z m1064 -26 c15 -23 15 -25 1 -25 -9 0 -14 4 -10 9 3 5 1 12 -5 16
-9 6 -14 25 -6 25 2 0 11 -11 20 -25z m-2454 11 c0 -2 -7 -7 -16 -10 -8 -3
-12 -2 -9 4 6 10 25 14 25 6z m280 -20 c0 -2 -8 -10 -17 -17 -16 -13 -17 -12
-4 4 13 16 21 21 21 13z m2395 -44 c-3 -3 -11 0 -18 7 -9 10 -8 11 6 5 10 -3
15 -9 12 -12z m153 -17 c0 -14 -4 -28 -9 -31 -5 -3 -6 1 -3 9 3 8 0 18 -7 23
-7 4 -10 3 -6 -2 3 -6 1 -16 -5 -24 -8 -12 -9 -12 -4 3 3 10 0 17 -8 17 -20 0
-27 -12 -15 -27 9 -9 8 -13 0 -13 -6 0 -11 -7 -11 -16 0 -9 5 -12 12 -8 7 4 8
3 4 -5 -4 -6 -12 -8 -18 -5 -7 5 -9 1 -5 -9 5 -14 2 -16 -21 -11 -21 4 -24 3
-12 -5 11 -8 12 -11 2 -11 -7 0 -11 -4 -7 -9 3 -6 -3 -9 -13 -8 -13 1 -18 7
-14 19 2 10 -1 25 -8 33 -7 8 -10 21 -7 28 3 8 1 20 -3 27 -5 8 -6 18 -4 22 5
8 64 -51 64 -64 0 -5 5 -8 11 -8 7 0 9 9 5 24 -4 15 0 28 9 36 8 7 13 16 10
20 -3 4 9 7 25 6 17 -1 30 1 30 6 0 4 2 8 4 8 2 0 4 -11 4 -25z m189 19 c-3
-3 -12 -4 -19 -1 -8 3 -5 6 6 6 11 1 17 -2 13 -5z m-2867 -24 c0 -5 -5 -10
-11 -10 -5 0 -7 5 -4 10 3 6 8 10 11 10 2 0 4 -4 4 -10z m2414 -52 c-3 -4 2
-8 10 -8 9 0 16 -5 16 -11 0 -5 4 -8 9 -4 5 3 23 -7 40 -23 26 -23 28 -28 12
-28 -11 0 -17 4 -14 9 3 5 -4 6 -16 2 -15 -5 -21 -2 -21 9 0 9 -4 16 -10 16
-13 0 -79 73 -74 82 3 4 16 -2 29 -14 13 -12 22 -25 19 -30z m456 32 c0 -5 -2
-10 -4 -10 -3 0 -8 5 -11 10 -3 6 -1 10 4 10 6 0 11 -4 11 -10z m-2910 -14 c0
-3 -4 -8 -10 -11 -5 -3 -10 -1 -10 4 0 6 5 11 10 11 6 0 10 -2 10 -4z m-153
-13 c-4 -3 -2 -12 3 -18 7 -9 5 -17 -7 -26 -15 -12 -16 -12 -8 1 8 13 7 13 -8
1 -9 -7 -17 -19 -17 -26 0 -6 -6 -12 -13 -12 -18 0 -16 46 3 57 8 5 18 6 22 4
4 -3 5 2 2 10 -4 11 0 16 12 16 9 0 14 -3 11 -7z m1910 1 c-3 -3 -12 -4 -19
-1 -8 3 -5 6 6 6 11 1 17 -2 13 -5z m-1797 -19 c-7 -9 -15 -13 -19 -10 -3 3 1
10 9 15 21 14 24 12 10 -5z m2415 -35 c3 -5 1 -10 -4 -10 -6 0 -11 5 -11 10 0
6 2 10 4 10 3 0 8 -4 11 -10z m-2607 -40 c-1 -16 -4 -27 -7 -25 -2 3 -10 -3
-18 -13 -12 -16 -13 -15 -6 3 3 11 9 25 12 30 3 6 6 13 7 18 3 15 4 17 9 17 3
0 4 -13 3 -30z m67 20 c3 -5 1 -10 -4 -10 -6 0 -11 5 -11 10 0 6 2 10 4 10 3
0 8 -4 11 -10z m3069 -1 c4 6 13 11 19 11 7 0 4 -5 -5 -11 -10 -5 -18 -17 -18
-24 0 -8 -4 -15 -10 -15 -5 0 -6 7 -3 17 4 11 3 14 -5 9 -8 -5 -10 -2 -5 9 4
12 8 13 13 5 5 -9 9 -9 14 -1z m-934 -39 c13 -8 13 -10 -2 -10 -9 0 -20 5 -23
10 -8 13 5 13 25 0z m699 -16 c14 -12 -19 -1 -35 12 -18 14 -18 14 6 3 14 -6
27 -13 29 -15z m-161 -7 c8 3 10 -1 6 -11 -3 -9 -1 -16 6 -16 6 0 8 -5 5 -10
-4 -6 -10 -8 -14 -5 -5 2 -5 -13 -1 -35 l7 -39 -23 16 c-13 8 -21 20 -17 26 4
6 0 8 -9 4 -11 -4 -15 0 -13 11 1 9 10 16 19 16 9 -1 16 2 16 7 0 5 -4 9 -9 9
-5 0 -17 3 -26 6 -10 4 -15 2 -13 -7 2 -8 -7 -15 -19 -17 -13 -2 -23 -8 -23
-14 0 -6 -3 -8 -7 -5 -3 4 -13 1 -22 -5 -12 -10 -12 -8 2 8 9 11 17 27 17 35
0 12 2 12 9 0 7 -11 14 -9 37 12 19 18 32 23 43 18 9 -5 22 -6 29 -4z m105
-11 c6 -15 -17 -16 -30 -1 -4 4 -2 5 5 1 6 -4 12 -2 12 3 0 15 7 14 13 -3z
m-2003 -41 c0 -10 -10 -15 -30 -15 -22 0 -28 4 -24 15 4 8 17 15 30 15 15 0
24 -6 24 -15z m1740 -1 c0 -8 -19 -13 -24 -6 -3 5 1 9 9 9 8 0 15 -2 15 -3z
m78 -40 c-11 -23 -13 -24 -24 -9 -9 12 -13 13 -17 3 -4 -10 -6 -10 -6 0 -1 8
8 16 19 19 11 3 20 10 20 15 0 5 4 7 10 3 6 -3 5 -15 -2 -31z m110 22 c-7 -8
-15 -12 -17 -11 -5 6 10 25 20 25 5 0 4 -6 -3 -14z m449 8 c-3 -3 -12 -4 -19
-1 -8 3 -5 6 6 6 11 1 17 -2 13 -5z m-242 -24 c-3 -5 -12 -7 -20 -3 -21 7 -19
13 6 13 11 0 18 -4 14 -10z m-379 -12 c4 -7 3 -8 -4 -4 -7 4 -12 2 -12 -4 0
-6 -5 -8 -11 -4 -8 4 -7 9 2 15 18 11 17 11 25 -3z m85 -21 c-10 -9 -11 -8 -5
6 3 10 9 15 12 12 3 -3 0 -11 -7 -18z m139 3 c0 -5 -7 -7 -15 -4 -8 4 -12 10
-9 15 6 11 24 2 24 -11z m280 -10 c0 -5 -5 -10 -11 -10 -5 0 -7 5 -4 10 3 6 8
10 11 10 2 0 4 -4 4 -10z m-117 -7 c-13 -2 -23 -9 -23 -14 0 -5 -5 -9 -11 -9
-8 0 -8 5 1 15 7 8 22 14 34 14 20 -2 20 -2 -1 -6z m-866 -19 c-3 -3 -12 -4
-19 -1 -8 3 -5 6 6 6 11 1 17 -2 13 -5z m807 -9 c-4 -8 -12 -15 -20 -15 -8 0
-16 0 -19 0 -15 0 -3 16 17 22 13 3 24 6 25 7 1 1 0 -6 -3 -14z m226 -4 c0
-11 -4 -23 -10 -26 -6 -4 -10 5 -10 19 0 14 5 26 10 26 6 0 10 -9 10 -19z
m-495 0 c3 -5 1 -12 -4 -15 -5 -3 -11 1 -15 9 -6 16 9 21 19 6z m92 3 c-3 -3
-12 -4 -19 -1 -8 3 -5 6 6 6 11 1 17 -2 13 -5z m-597 -45 c0 -5 -4 -9 -10 -9
-5 0 -10 7 -10 16 0 8 5 12 10 9 6 -3 10 -10 10 -16z m820 11 c0 -5 -2 -10 -4
-10 -3 0 -8 5 -11 10 -3 6 -1 10 4 10 6 0 11 -4 11 -10z m-2281 -3 c-2 -1 -11
-8 -20 -15 -14 -10 -18 -10 -23 3 -4 11 1 15 21 15 14 0 24 -1 22 -3z m1351
-1 c0 -3 -4 -8 -10 -11 -5 -3 -10 -1 -10 4 0 6 5 11 10 11 6 0 10 -2 10 -4z
m495 -36 c3 -5 1 -10 -4 -10 -6 0 -11 5 -11 10 0 6 2 10 4 10 3 0 8 -4 11 -10z
m244 -61 c-22 -14 -33 -10 -19 6 7 8 17 12 22 9 6 -4 5 -10 -3 -15z m-134 -29
c-3 -5 -14 -10 -23 -9 -14 0 -13 2 3 9 27 11 27 11 20 0z m-114 -37 c13 -16
12 -17 -3 -4 -10 7 -18 15 -18 17 0 8 8 3 21 -13z m-44 -15 c-3 -8 -6 -5 -6 6
-1 11 2 17 5 13 3 -3 4 -12 1 -19z m303 2 c0 -5 -5 -10 -11 -10 -5 0 -7 5 -4
10 3 6 8 10 11 10 2 0 4 -4 4 -10z m403 -43 c-10 -11 -13 -17 -6 -14 6 4 14 3
18 -2 5 -10 -43 -61 -57 -61 -10 0 -31 40 -25 47 3 2 8 -5 12 -16 5 -17 9 -18
20 -8 7 6 11 15 8 19 -12 20 -11 50 2 55 8 3 15 9 15 15 0 5 -5 6 -12 2 -7 -5
-8 -3 -4 5 6 9 13 8 27 -5 18 -16 18 -18 2 -37z m-659 15 c2 -4 1 -14 -5 -22
-5 -10 -9 -11 -9 -3 0 8 -7 10 -17 6 -15 -6 -16 -5 -3 10 17 18 26 21 34 9z
m586 -12 c6 -11 8 -20 6 -20 -3 0 -10 9 -16 20 -6 11 -8 20 -6 20 3 0 10 -9
16 -20z m-622 -34 c-7 -8 -15 -12 -17 -11 -5 6 10 25 20 25 5 0 4 -6 -3 -14z
m252 -10 c0 -3 -4 -8 -10 -11 -5 -3 -10 -1 -10 4 0 6 5 11 10 11 6 0 10 -2 10
-4z m28 -16 c-7 -10 -14 -17 -17 -15 -4 4 18 35 25 35 2 0 -1 -9 -8 -20z m442
-30 c0 -5 -2 -10 -4 -10 -3 0 -8 5 -11 10 -3 6 -1 10 4 10 6 0 11 -4 11 -10z
m-817 -101 c-4 -4 -6 15 -3 44 l5 52 3 -44 c2 -24 0 -47 -5 -52z m820 61 c3
-11 1 -20 -4 -20 -5 0 -9 2 -9 4 0 2 -3 11 -6 20 -3 9 -2 16 4 16 5 0 12 -9
15 -20z m-913 6 c0 -2 -8 -10 -17 -17 -16 -13 -17 -12 -4 4 13 16 21 21 21 13z
m738 -87 c-2 -6 -8 -10 -13 -10 -5 0 -11 4 -13 10 -2 6 4 11 13 11 9 0 15 -5
13 -11z m-548 -94 c13 -14 21 -25 18 -25 -2 0 -15 11 -28 25 -13 14 -21 25
-18 25 2 0 15 -11 28 -25z m741 -118 c-13 -13 -26 -3 -16 12 3 6 11 8 17 5 6
-4 6 -10 -1 -17z m-566 -67 c3 -5 -1 -10 -10 -10 -9 0 -13 5 -10 10 3 6 8 10
10 10 2 0 7 -4 10 -10z m-34 -17 c13 -16 12 -17 -3 -4 -10 7 -18 15 -18 17 0
8 8 3 21 -13z m424 -61 c-3 -3 -11 0 -18 7 -9 10 -8 11 6 5 10 -3 15 -9 12
-12z m-320 -30 c-3 -3 -16 5 -28 17 l-22 23 28 -17 c15 -10 25 -20 22 -23z
m-905 4 c0 -2 -8 -10 -17 -17 -16 -13 -17 -12 -4 4 13 16 21 21 21 13z"/>
<path d="M644 3618 l-19 -23 23 19 c21 18 27 26 19 26 -2 0 -12 -10 -23 -22z"/>
<path d="M2120 3466 c0 -15 18 -31 26 -23 7 7 -7 37 -17 37 -5 0 -9 -6 -9 -14z"/>
<path d="M394 3258 l-19 -23 23 19 c21 18 27 26 19 26 -2 0 -12 -10 -23 -22z"/>
<path d="M565 3179 c-4 -6 -5 -12 -2 -15 2 -3 7 2 10 11 7 17 1 20 -8 4z"/>
<path d="M568 3123 c6 -2 10 -8 7 -13 -3 -4 3 -14 12 -21 15 -12 16 -12 10 4
-4 10 -7 23 -7 28 0 5 -8 9 -17 8 -11 0 -13 -3 -5 -6z"/>
<path d="M2387 3098 c6 -7 13 -20 16 -28 4 -10 6 -8 6 6 1 12 -6 25 -15 28
-13 5 -14 3 -7 -6z"/>
<path d="M1367 2933 c-3 -5 0 -19 8 -29 15 -20 18 -11 6 20 -4 11 -10 15 -14
9z"/>
<path d="M130 2910 c-9 -6 -10 -10 -3 -10 6 0 15 5 18 10 8 12 4 12 -15 0z"/>
<path d="M1472 2878 c5 -15 28 -23 28 -10 0 5 -7 13 -16 16 -10 4 -14 1 -12
-6z"/>
<path d="M655 2870 c4 -6 11 -8 16 -5 14 9 11 15 -7 15 -8 0 -12 -5 -9 -10z"/>
<path d="M1517 2859 c7 -7 15 -10 18 -7 3 3 -2 9 -12 12 -14 6 -15 5 -6 -5z"/>
<path d="M224 2645 c-10 -8 -14 -15 -8 -15 6 0 17 7 24 15 16 19 9 19 -16 0z"/>
<path d="M778 2133 c7 -3 16 -2 19 1 4 3 -2 6 -13 5 -11 0 -14 -3 -6 -6z"/>
<path d="M560 2045 c0 -5 5 -17 10 -25 5 -8 10 -10 10 -5 0 6 -5 17 -10 25 -5
8 -10 11 -10 5z"/>
<path d="M606 1937 c3 -10 9 -15 12 -12 3 3 0 11 -7 18 -10 9 -11 8 -5 -6z"/>
<path d="M530 1819 c0 -5 5 -7 10 -4 6 3 10 8 10 11 0 2 -4 4 -10 4 -5 0 -10
-5 -10 -11z"/>
<path d="M476 1802 c-3 -6 1 -13 10 -16 23 -9 28 -2 10 13 -8 7 -17 8 -20 3z"/>
<path d="M430 1791 c0 -5 -11 -12 -25 -15 -14 -4 -25 -11 -25 -16 0 -6 13 -4
29 5 32 16 49 35 32 35 -6 0 -11 -4 -11 -9z"/>
<path d="M440 1754 c0 -17 22 -14 28 4 2 7 -3 12 -12 12 -9 0 -16 -7 -16 -16z"/>
<path d="M385 1733 c-24 -13 -39 -29 -37 -38 2 -8 -1 -15 -5 -14 -4 1 -17 1
-28 0 -17 -1 -18 -3 -5 -11 27 -18 66 -12 67 10 1 11 -2 18 -7 15 -5 -3 -11
-1 -15 4 -3 6 3 8 12 6 20 -3 67 29 61 43 -1 4 -21 -2 -43 -15z"/>
<path d="M2710 1750 c8 -5 20 -10 25 -10 6 0 3 5 -5 10 -8 5 -19 10 -25 10 -5
0 -3 -5 5 -10z"/>
<path d="M386 1685 c-3 -9 0 -15 9 -15 8 0 15 7 15 15 0 8 -4 15 -9 15 -5 0
-11 -7 -15 -15z"/>
<path d="M370 1640 c-14 -11 -20 -20 -13 -20 11 0 43 26 43 36 0 7 -4 5 -30
-16z"/>
<path d="M2820 1581 c0 -6 4 -13 10 -16 6 -3 7 1 4 9 -7 18 -14 21 -14 7z"/>
<path d="M125 1510 c-3 -5 -1 -10 4 -10 6 0 11 5 11 10 0 6 -2 10 -4 10 -3 0
-8 -4 -11 -10z"/>
<path d="M3164 1448 c-4 -6 -3 -8 4 -4 6 3 13 2 17 -4 3 -5 11 -10 17 -10 7 0
6 6 -2 15 -15 18 -26 19 -36 3z"/>
<path d="M10 1365 c0 -2 9 -9 20 -15 16 -9 18 -8 14 5 -5 13 -34 22 -34 10z"/>
<path d="M3306 1281 c-4 -7 -5 -15 -2 -18 9 -9 19 4 14 18 -4 11 -6 11 -12 0z"/>
<path d="M3306 1185 c4 -8 8 -15 10 -15 2 0 4 7 4 15 0 8 -4 15 -10 15 -5 0
-7 -7 -4 -15z"/>
<path d="M3520 940 c-12 -8 -12 -10 3 -16 21 -8 35 2 21 16 -5 5 -15 6 -24 0z"/>
<path d="M3464 855 c10 -8 23 -12 29 -8 11 7 -12 23 -33 23 -12 -1 -11 -4 4
-15z"/>
<path d="M3270 830 c-12 -7 -10 -9 8 -7 12 0 22 5 22 9 0 11 -12 10 -30 -2z"/>
<path d="M3323 833 c4 -3 -1 -12 -11 -19 -16 -13 -16 -13 0 -14 23 0 18 -35
-8 -55 -19 -15 -19 -15 0 -30 10 -8 24 -16 30 -18 8 -3 7 -9 -2 -19 -9 -11
-10 -18 -2 -23 6 -3 8 -11 5 -16 -4 -5 -1 -9 4 -9 7 0 11 24 11 59 0 81 -11
151 -23 151 -6 0 -7 -3 -4 -7z"/>
<path d="M3415 760 c3 -5 8 -10 11 -10 2 0 4 5 4 10 0 6 -5 10 -11 10 -5 0 -7
-4 -4 -10z"/>
<path d="M3211 724 c0 -11 3 -14 6 -6 3 7 2 16 -1 19 -3 4 -6 -2 -5 -13z"/>
<path d="M3348 590 c2 -16 9 -30 14 -30 5 0 6 10 3 23 -11 35 -22 40 -17 7z"/>
<path d="M3303 585 c0 -8 4 -15 9 -15 4 0 8 4 8 9 0 6 -4 12 -8 15 -5 3 -9 -1
-9 -9z"/>
<path d="M3595 501 c17 -3 29 -10 28 -14 -2 -4 -1 -7 2 -7 3 0 5 2 5 5 0 3 0
10 0 15 0 6 -15 9 -32 9 l-33 -1 30 -7z"/>
<path d="M3387 430 c3 -11 7 -20 9 -20 2 0 4 9 4 20 0 11 -4 20 -9 20 -5 0 -7
-9 -4 -20z"/>
<path d="M3458 413 c7 -3 16 -2 19 1 4 3 -2 6 -13 5 -11 0 -14 -3 -6 -6z"/>
<path d="M3431 383 c0 -4 4 -17 9 -28 8 -19 9 -19 9 2 1 12 -3 25 -9 28 -5 3
-10 3 -9 -2z"/>
<path d="M3415 310 c3 -5 8 -10 11 -10 2 0 4 5 4 10 0 6 -5 10 -11 10 -5 0 -7
-4 -4 -10z"/>
<path d="M3443 56 l-26 -23 26 -7 c15 -3 27 -11 27 -16 0 -5 6 -7 14 -4 8 3
14 14 13 24 -1 10 -5 16 -9 14 -4 -3 -14 -2 -20 3 -9 5 -3 9 17 13 28 5 28 6
7 12 -16 4 -31 -1 -49 -16z"/>
<path d="M3430 9 c0 -5 5 -7 10 -4 6 3 10 8 10 11 0 2 -4 4 -10 4 -5 0 -10 -5
-10 -11z"/>
<path d="M3555 10 c-3 -5 1 -10 9 -10 9 0 16 5 16 10 0 6 -4 10 -9 10 -6 0
-13 -4 -16 -10z"/>
</g>
</svg>
